<svg width="44" height="44" viewBox="0 0 44 44" fill="none" xmlns="http://www.w3.org/2000/svg">
<rect width="44" height="44" rx="8" fill="#A492FF"/>
<path d="M16.6797 18.4297C16.2161 18.4297 15.8047 18.5208 15.4453 18.7031C15.0911 18.8802 14.7917 19.138 14.5469 19.4766C14.3073 19.8151 14.125 20.224 14 20.7031C13.875 21.1823 13.8125 21.7214 13.8125 22.3203C13.8125 23.1276 13.9115 23.8177 14.1094 24.3906C14.3125 24.9583 14.625 25.3932 15.0469 25.6953C15.4688 25.9922 16.013 26.1406 16.6797 26.1406C17.1432 26.1406 17.6068 26.0885 18.0703 25.9844C18.5391 25.8802 19.0469 25.7318 19.5938 25.5391V27.5703C19.0885 27.7786 18.5911 27.9271 18.1016 28.0156C17.612 28.1094 17.0625 28.1562 16.4531 28.1562C15.276 28.1562 14.3073 27.9141 13.5469 27.4297C12.7917 26.9401 12.2318 26.2578 11.8672 25.3828C11.5026 24.5026 11.3203 23.4766 11.3203 22.3047C11.3203 21.4401 11.4375 20.6484 11.6719 19.9297C11.9062 19.2109 12.25 18.5885 12.7031 18.0625C13.1562 17.5365 13.7161 17.1302 14.3828 16.8438C15.0495 16.5573 15.8151 16.4141 16.6797 16.4141C17.2474 16.4141 17.8151 16.487 18.3828 16.6328C18.9557 16.7734 19.5026 16.9688 20.0234 17.2188L19.2422 19.1875C18.8151 18.9844 18.3854 18.8073 17.9531 18.6562C17.5208 18.5052 17.0964 18.4297 16.6797 18.4297ZM32.1641 28H29.0859L24.1172 19.3594H24.0469C24.0677 19.7188 24.0859 20.0807 24.1016 20.4453C24.1172 20.8099 24.1328 21.1745 24.1484 21.5391C24.1641 21.8984 24.1797 22.2604 24.1953 22.625V28H22.0312V16.5781H25.0859L30.0469 25.1328H30.1016C30.0911 24.7786 30.0781 24.4271 30.0625 24.0781C30.0469 23.7292 30.0312 23.3802 30.0156 23.0312C30.0052 22.6823 29.9948 22.3333 29.9844 21.9844V16.5781H32.1641V28Z" fill="white"/>
</svg>
