<svg width="44" height="45" viewBox="0 0 44 45" fill="none" xmlns="http://www.w3.org/2000/svg">
<circle opacity="0.2" cx="22" cy="22" r="22" fill="#E9A21A"/>
<path d="M16.8916 31.1183H27.5352C29.4424 31.1183 30.4268 30.1115 30.4268 28.1879V17.2485C30.4268 15.3249 29.4424 14.3182 27.5352 14.3182H16.8916C14.9932 14.3182 14 15.3159 14 17.2485V28.1879C14 30.1115 14.9932 31.1183 16.8916 31.1183ZM22.2441 24.2418C21.7256 24.2418 21.4268 23.9452 21.4092 23.4059L21.2861 18.9204C21.2686 18.3631 21.6553 17.9766 22.2354 17.9766C22.7979 17.9766 23.2109 18.3721 23.1934 18.9294L23.0527 23.4059C23.0352 23.9542 22.7451 24.2418 22.2441 24.2418ZM22.2441 27.352C21.6465 27.352 21.1543 26.9115 21.1543 26.3182C21.1543 25.725 21.6377 25.2845 22.2441 25.2845C22.8418 25.2845 23.3252 25.725 23.3252 26.3182C23.3252 26.9205 22.833 27.352 22.2441 27.352Z" fill="#E9A21A"/>
</svg>
