<svg width="24" height="24" viewBox="0 0 24 24" fill="none" xmlns="http://www.w3.org/2000/svg">
<path d="M6.29467 16.1775C5.89692 16.5751 5.87797 17.2852 6.30414 17.6923C6.71136 18.1184 7.43111 18.0994 7.82886 17.7018L12.422 13.1099L17.0151 17.7018C17.4223 18.1089 18.1231 18.1184 18.5303 17.6923C18.9565 17.2852 18.947 16.5751 18.5398 16.168L13.9467 11.5762L18.5398 6.99381C18.947 6.57723 18.9565 5.87662 18.5303 5.46951C18.1231 5.04346 17.4223 5.05293 17.0151 5.46004L12.422 10.0519L7.82886 5.46004C7.43111 5.0624 6.71136 5.04346 6.30414 5.46951C5.87797 5.87662 5.89692 6.5867 6.29467 6.98434L10.8878 11.5762L6.29467 16.1775Z" fill="#0FB57C"/>
</svg>
